HIERARCHY
ROOT Hips
{
    OFFSET   0.000000   0.000000   0.000000
    CHANNELS 6 Xposition Yposition Zposition Zrotation Xrotation Yrotation
    JOINT Chest
    {
        OFFSET   0.000000   8.007240   0.000000
        CHANNELS 3 Zrotation Xrotation Yrotation
        JOINT Chest2
        {
            OFFSET   0.000000  22.077100   0.000000
            CHANNELS 3 Zrotation Xrotation Yrotation
            JOINT Neck
            {
                OFFSET   0.000000  23.254800   0.000000
                CHANNELS 3 Zrotation Xrotation Yrotation
                JOINT Head
                {
                    OFFSET   0.000000  14.370000   1.956600
                    CHANNELS 3 Zrotation Xrotation Yrotation
                    End Site
                    {
                        OFFSET   0.000000  19.566000   0.000000
                    }
                }
            }
            JOINT LeftCollar
            {
                OFFSET   3.911900  19.017000  -0.467064
                CHANNELS 3 Zrotation Xrotation Yrotation
                JOINT LeftShoulder
                {
                    OFFSET  10.383700   0.000000   0.000000
                    CHANNELS 3 Zrotation Xrotation Yrotation
                    JOINT LeftElbow
                    {
                        OFFSET  26.662100   0.001476   0.000517
                        CHANNELS 3 Zrotation Xrotation Yrotation
                        JOINT LeftWrist
                        {
                            OFFSET  28.869000  -0.000025  -0.000106
                            CHANNELS 3 Zrotation Xrotation Yrotation
                            JOINT LeftFinger0
                            {
                                OFFSET   2.044660  -2.323460   3.252850
                                CHANNELS 3 Zrotation Xrotation Yrotation
                                JOINT LeftFinger01
                                {
                                    OFFSET   3.088130   0.000000   0.000000
                                    CHANNELS 3 Zrotation Xrotation Yrotation
                                    JOINT LeftFinger02
                                    {
                                        OFFSET   2.639460   0.000000   0.000000
                                        CHANNELS 3 Zrotation Xrotation Yrotation
                                        End Site
                                        {
                                            OFFSET   2.582190   0.000000   0.000000
                                        }
                                    }
                                }
                            }
                            JOINT LeftFinger1
                            {
                                OFFSET   8.364480   0.000000   3.252850
                                CHANNELS 3 Zrotation Xrotation Yrotation
                                JOINT LeftFinger11
                                {
                                    OFFSET   4.646930   0.000000   0.000000
                                    CHANNELS 3 Zrotation Xrotation Yrotation
                                    JOINT LeftFinger12
                                    {
                                        OFFSET   2.323460   0.000000   0.000000
                                        CHANNELS 3 Zrotation Xrotation Yrotation
                                        End Site
                                        {
                                            OFFSET   2.273050   0.000000   0.000000
                                        }
                                    }
                                }
                            }
                            JOINT LeftFinger2
                            {
                                OFFSET   8.364490   0.000015   1.078090
                                CHANNELS 3 Zrotation Xrotation Yrotation
                                JOINT LeftFinger21
                                {
                                    OFFSET   5.111620   0.000000   0.000000
                                    CHANNELS 3 Zrotation Xrotation Yrotation
                                    JOINT LeftFinger22
                                    {
                                        OFFSET   2.788160   0.000016   0.000000
                                        CHANNELS 3 Zrotation Xrotation Yrotation
                                        End Site
                                        {
                                            OFFSET   2.727660   0.000000   0.000000
                                        }
                                    }
                                }
                            }
                            JOINT LeftFinger3
                            {
                                OFFSET   7.899780   0.000017  -1.078090
                                CHANNELS 3 Zrotation Xrotation Yrotation
                                JOINT LeftFinger31
                                {
                                    OFFSET   4.646930   0.000000   0.000000
                                    CHANNELS 3 Zrotation Xrotation Yrotation
                                    JOINT LeftFinger32
                                    {
                                        OFFSET   2.323470   0.000000   0.000000
                                        CHANNELS 3 Zrotation Xrotation Yrotation
                                        End Site
                                        {
                                            OFFSET   2.273050   0.000000   0.000000
                                        }
                                    }
                                }
                            }
                            JOINT LeftFinger4
                            {
                                OFFSET   7.435090   0.000000  -3.252850
                                CHANNELS 3 Zrotation Xrotation Yrotation
                                JOINT LeftFinger41
                                {
                                    OFFSET   3.717550   0.000000   0.000000
                                    CHANNELS 3 Zrotation Xrotation Yrotation
                                    JOINT LeftFinger42
                                    {
                                        OFFSET   1.858770   0.000000   0.000000
                                        CHANNELS 3 Zrotation Xrotation Yrotation
                                        End Site
                                        {
                                            OFFSET   1.818440   0.000000   0.000000
                                        }
                                    }
                                }
                            }
                        }
                    }
                }
            }
            JOINT RightCollar
            {
                OFFSET  -3.911900  19.017000  -0.467063
                CHANNELS 3 Zrotation Xrotation Yrotation
                JOINT RightShoulder
                {
                    OFFSET -10.383700   0.000019   0.000000
                    CHANNELS 3 Zrotation Xrotation Yrotation
                    JOINT RightElbow
                    {
                        OFFSET -26.662100   0.001175   0.000102
                        CHANNELS 3 Zrotation Xrotation Yrotation
                        JOINT RightWrist
                        {
                            OFFSET -28.869000   0.000016  -0.000079
                            CHANNELS 3 Zrotation Xrotation Yrotation
                            JOINT RightFinger0
                            {
                                OFFSET  -2.044660  -2.323490   3.252850
                                CHANNELS 3 Zrotation Xrotation Yrotation
                                JOINT RightFinger01
                                {
                                    OFFSET  -3.088140   0.000000   0.000000
                                    CHANNELS 3 Zrotation Xrotation Yrotation
                                    JOINT RightFinger02
                                    {
                                        OFFSET  -2.639460   0.000000   0.000000
                                        CHANNELS 3 Zrotation Xrotation Yrotation
                                        End Site
                                        {
                                            OFFSET  -2.582190   0.000000   0.000000
                                        }
                                    }
                                }
                            }
                            JOINT RightFinger1
                            {
                                OFFSET  -8.364480   0.000000   3.252850
                                CHANNELS 3 Zrotation Xrotation Yrotation
                                JOINT RightFinger11
                                {
                                    OFFSET  -4.646930   0.000000   0.000000
                                    CHANNELS 3 Zrotation Xrotation Yrotation
                                    JOINT RightFinger12
                                    {
                                        OFFSET  -2.323470   0.000000   0.000000
                                        CHANNELS 3 Zrotation Xrotation Yrotation
                                        End Site
                                        {
                                            OFFSET  -2.273050   0.000000   0.000000
                                        }
                                    }
                                }
                            }
                            JOINT RightFinger2
                            {
                                OFFSET  -8.364480   0.000000   1.078090
                                CHANNELS 3 Zrotation Xrotation Yrotation
                                JOINT RightFinger21
                                {
                                    OFFSET  -5.111620   0.000000   0.000000
                                    CHANNELS 3 Zrotation Xrotation Yrotation
                                    JOINT RightFinger22
                                    {
                                        OFFSET  -2.788160   0.000000   0.000000
                                        CHANNELS 3 Zrotation Xrotation Yrotation
                                        End Site
                                        {
                                            OFFSET  -2.727660   0.000000   0.000000
                                        }
                                    }
                                }
                            }
                            JOINT RightFinger3
                            {
                                OFFSET  -7.899780   0.000000  -1.078090
                                CHANNELS 3 Zrotation Xrotation Yrotation
                                JOINT RightFinger31
                                {
                                    OFFSET  -4.646930   0.000000   0.000000
                                    CHANNELS 3 Zrotation Xrotation Yrotation
                                    JOINT RightFinger32
                                    {
                                        OFFSET  -2.323470   0.000000   0.000000
                                        CHANNELS 3 Zrotation Xrotation Yrotation
                                        End Site
                                        {
                                            OFFSET  -2.273050   0.000000   0.000000
                                        }
                                    }
                                }
                            }
                            JOINT RightFinger4
                            {
                                OFFSET  -7.435090   0.000000  -3.252850
                                CHANNELS 3 Zrotation Xrotation Yrotation
                                JOINT RightFinger41
                                {
                                    OFFSET  -3.717550   0.000000   0.000000
                                    CHANNELS 3 Zrotation Xrotation Yrotation
                                    JOINT RightFinger42
                                    {
                                        OFFSET  -1.858770   0.000000   0.000000
                                        CHANNELS 3 Zrotation Xrotation Yrotation
                                        End Site
                                        {
                                            OFFSET  -1.818440   0.000000   0.000000
                                        }
                                    }
                                }
                            }
                        }
                    }
                }
            }
        }
    }
    JOINT LeftHip
    {
        OFFSET   9.783040   0.000000   0.000000
        CHANNELS 3 Zrotation Xrotation Yrotation
        JOINT LeftKnee
        {
            OFFSET   0.000032 -41.789100  -0.002222
            CHANNELS 3 Zrotation Xrotation Yrotation
            JOINT LeftAnkle
            {
                OFFSET   0.000087 -41.133200  -0.000135
                CHANNELS 3 Zrotation Xrotation Yrotation
                JOINT LeftToe
                {
                    OFFSET   0.000000  -6.358960  14.674500
                    CHANNELS 3 Zrotation Xrotation Yrotation
                    End Site
                    {
                        OFFSET   0.000000   0.000000   3.913200
                    }
                }
            }
        }
    }
    JOINT RightHip
    {
        OFFSET  -9.783040   0.000000   0.000000
        CHANNELS 3 Zrotation Xrotation Yrotation
        JOINT RightKnee
        {
            OFFSET   0.000047 -41.789100  -0.000896
            CHANNELS 3 Zrotation Xrotation Yrotation
            JOINT RightAnkle
            {
                OFFSET  -0.000117 -41.133300  -0.000248
                CHANNELS 3 Zrotation Xrotation Yrotation
                JOINT RightToe
                {
                    OFFSET   0.000000  -6.358970  14.674500
                    CHANNELS 3 Zrotation Xrotation Yrotation
                    End Site
                    {
                        OFFSET   0.000000   0.000000   3.913200
                    }
                }
            }
        }
    }
}
MOTION
Frames: 4
Frame Time:   0.016667
 -1.238440  89.558800  -4.901740  -1.211890  -7.401060   2.460120   1.013990   4.554350  -0.426438   2.071940   9.100250  -0.938422   0.338375  -1.014490  -0.002281   0.556686  -2.057410   4.191950  -8.440020   2.013210  -1.676010 -69.498000  12.640400  -4.883950  -2.264700  -3.983470 -15.062700   6.841160 -12.147400   8.345140  37.462200  25.561000 -51.840500 -30.059800   0.002348   0.004287 -10.029900   0.006647   0.000825 -34.883300   4.720500  -6.732050 -28.768100   0.003731   0.005167 -20.137700  -0.005624   0.007139 -28.765400   0.450244  -0.820088 -40.760200  -0.007839  -0.001964 -27.146300   0.002170  -0.006239 -28.388900  -3.821370   7.033000 -37.600700  -0.002278  -0.001524 -25.042100   0.000922  -0.005037 -30.390500  -5.125220   8.657560 -46.168200  -0.006494  -0.005624 -30.748000   0.001740   0.000424   8.109640  -0.603907   6.558980  71.458500   5.454130   1.481090  -1.305300  -4.101340  10.989600 -12.940600 -12.072700   7.293870 -43.831700  27.251300  62.334900  17.643900   0.005235  -0.001603   3.821950  -0.007310   0.005321  31.802500   7.008120  11.133600  26.584300  -0.007183   0.008020  18.608400  -0.011869   0.006909  28.466100   3.679160   6.748540  38.806400   0.007857  -0.006306  25.845000   0.001326  -0.008565  28.638400   1.743000   3.188520  38.726200   0.002804  -0.000563  25.791600   0.003992  -0.007870  34.268400   0.398091   0.595561  51.405600   0.003280  -0.006735  34.236100   0.000432  -0.004635   2.941400  10.006800   3.065840   0.873327   0.190755  12.325300  -4.978040  -2.667540   4.695540  -0.000000   0.000000   0.000000  -0.667330   6.551200  -4.789430   1.113160   3.514710 -11.651700  -2.089100  -2.661690  -4.537480   0.000000   0.000000   0.000000
 -1.223690  89.558800  -4.901800  -1.219690  -7.417200   2.438920   1.013870   4.559530  -0.426473   2.071740   9.110620  -0.938630   0.353187  -1.000090  -0.002271   0.581043  -2.027940   4.184300  -8.416080   2.011990  -1.621030 -69.556800  12.753600  -4.948350  -2.241120  -4.008800 -15.018600   6.832250 -12.234900   8.350980  37.372400  25.333200 -51.861900 -30.035700   0.002329   0.004274 -10.017900   0.006647   0.000814 -34.916000   4.747290  -6.761530 -28.797000   0.003724   0.005160 -20.157900  -0.005622   0.007138 -28.766700   0.459990  -0.837669 -40.851000  -0.007835  -0.001972 -27.206800   0.002163  -0.006234 -28.394800  -3.799950   6.991580 -37.696500  -0.002292  -0.001533 -25.105900   0.000919  -0.005044 -30.449200  -5.124840   8.649120 -46.254700  -0.006491  -0.005636 -30.805600   0.001754   0.000414   8.112220  -0.624324   6.566480  71.473700   5.518280   1.518700  -1.294490  -4.176180  10.937300 -12.927300 -12.108000   7.254890 -43.776100  27.183100  62.294000  17.681700   0.005238  -0.001608   3.840870  -0.007314   0.005310  31.811900   6.982990  11.090000  26.584200  -0.007178   0.008018  18.608400  -0.011869   0.006910  28.470600   3.659960   6.713000  38.808600   0.007853  -0.006299  25.846500   0.001313  -0.008561  28.639100   1.735690   3.174910  38.754200   0.002787  -0.000535  25.810200   0.003995  -0.007876  34.286900   0.397825   0.589060  51.433400   0.003287  -0.006735  34.254700   0.000428  -0.004644   2.939890  10.037500   3.065940   0.864665   0.170793  12.333700  -4.968210  -2.663910   4.705920  -0.000000   0.000000  -0.000000  -0.673811   6.589760  -4.780870   1.115720   3.493060 -11.651400  -2.078690  -2.656480  -4.522800   0.000000   0.000000   0.000000
 -1.198990  89.558700  -4.901870  -1.232330  -7.448220   2.403750   1.013780   4.569790  -0.426510   2.071710   9.131150  -0.938866   0.378488  -0.973535  -0.002251   0.622624  -1.973810   4.170670  -8.392720   2.007990  -1.551680 -69.644000  12.941400  -5.044080  -2.227340  -4.070840 -14.975200   6.810300 -12.455800   8.361150  37.257600  25.004500 -51.905700 -29.970200   0.002285   0.004235  -9.985120   0.006648   0.000784 -34.968800   4.800550  -6.823180 -28.844800   0.003704   0.005145 -20.191300  -0.005615   0.007135 -28.768500   0.479870  -0.873647 -40.983500  -0.007824  -0.001992 -27.295000   0.002146  -0.006223 -28.405300  -3.759850   6.914880 -37.828200  -0.002328  -0.001559 -25.193600   0.000911  -0.005060 -30.533800  -5.121920   8.607490 -46.378700  -0.006483  -0.005663 -30.888200   0.001790   0.000388   8.116750  -0.661261   6.577420  71.493100   5.632030   1.600560  -1.276000  -4.309480  10.841600 -12.886800 -12.231200   7.174230 -43.683200  27.055200  62.195400  17.719600   0.005244  -0.001614   3.859790  -0.007324   0.005300  31.819500   6.946350  11.029100  26.583400  -0.007170   0.008015  18.608400  -0.011869   0.006912  28.474900   3.640750   6.677470  38.810800   0.007841  -0.006274  25.848000   0.001278  -0.008551  28.639800   1.728380   3.161310  38.782200   0.002749  -0.000472  25.828900   0.004002  -0.007891  34.305500   0.397558   0.582559  51.461300   0.003306  -0.006735  34.273200   0.000419  -0.004668   2.937120  10.094500   3.066290   0.851117   0.133075  12.348800  -4.950870  -2.655530   4.723510   0.000000   0.000000   0.000000  -0.683697   6.642810  -4.768030   1.118270   3.471420 -11.650900  -2.062210  -2.648610  -4.499200  -0.000000   0.000000  -0.000000
 -1.178910  89.558700  -4.901080  -1.241540  -7.480400   2.376630   1.015800   4.580270  -0.425414   2.075840   9.152140  -0.937138   0.399230  -0.946581  -0.002234   0.656643  -1.919340   4.157230  -8.394280   2.003110  -1.534920 -69.690800  13.102900  -5.104160  -2.250580  -4.153770 -14.987800   6.738210 -12.815100   8.300200  37.240800  24.834500 -51.952200 -29.868100   0.002220   0.004169  -9.934040   0.006652   0.000735 -35.000000   4.861690  -6.901440 -28.876000   0.003672   0.005125 -20.213200  -0.005599   0.007131 -28.769300   0.501830  -0.913559 -41.056600  -0.007807  -0.002023 -27.343700   0.002121  -0.006205 -28.411900  -3.720110   6.840380 -37.876300  -0.002386  -0.001598 -25.225600   0.000899  -0.005082 -30.579900  -5.082370   8.516680 -46.442100  -0.006470  -0.005702 -30.930400   0.001844   0.000344   8.119750  -0.695694   6.581240  71.498200   5.736610   1.706380  -1.260740  -4.435980  10.739200 -12.809500 -12.456800   7.074580 -43.584500  26.887400  62.027300  17.684300   0.005249  -0.001616   3.842160  -0.007338   0.005300  31.808100   6.925480  11.003700  26.572800  -0.007160   0.008018  18.601200  -0.011865   0.006915  28.474700   3.640890   6.677870  38.785200   0.007823  -0.006229  25.831000   0.001223  -0.008536  28.638900   1.734000   3.171710  38.769500   0.002698  -0.000379  25.820500   0.004011  -0.007916  34.299000   0.399021   0.584872  51.451500   0.003335  -0.006739  34.266700   0.000405  -0.004706   2.933940  10.157600   3.066900   0.840229   0.082010  12.363500  -4.933070  -2.640180   4.738970   0.000000   0.000000   0.000000  -0.689999   6.655810  -4.761710   1.117900   3.490400 -11.647400  -2.050200  -2.644120  -4.481320  -0.000000   0.000000  -0.000000
